name C:\Users\u0150099\Documents\master_thesis\3dpredictsim\Results\debug\Fal_s1_mtj_sc_cspx10_oy_o1x25_MTc_MTPm_k1_d01_MTJm_nl_MG_exp_table_d01_PF_Gefen2002_ls146_FDB_ig21.mot
datacolumns 130
datarows 4
range 1.56718111 1.59852473
endheader
time	pelvis_tilt	pelvis_list	pelvis_rotation	pelvis_tx	pelvis_ty	pelvis_tz	hip_flexion_l	hip_adduction_l	hip_rotation_l	hip_flexion_r	hip_adduction_r	hip_rotation_r	knee_angle_l	knee_angle_r	ankle_angle_l	ankle_angle_r	subtalar_angle_l	subtalar_angle_r	mtj_angle_l	mtj_angle_r	mtp_angle_l	mtp_angle_r	lumbar_extension	lumbar_bending	lumbar_rotation	arm_flex_l	arm_add_l	arm_rot_l	arm_flex_r	arm_add_r	arm_rot_r	elbow_flex_l	elbow_flex_r	pro_sup_l	pro_sup_r	glut_med1_l/activation	glut_med2_l/activation	glut_med3_l/activation	glut_min1_l/activation	glut_min2_l/activation	glut_min3_l/activation	semimem_l/activation	semiten_l/activation	bifemlh_l/activation	bifemsh_l/activation	sar_l/activation	add_long_l/activation	add_brev_l/activation	add_mag1_l/activation	add_mag2_l/activation	add_mag3_l/activation	tfl_l/activation	pect_l/activation	grac_l/activation	glut_max1_l/activation	glut_max2_l/activation	glut_max3_l/activation	iliacus_l/activation	psoas_l/activation	quad_fem_l/activation	gem_l/activation	peri_l/activation	rect_fem_l/activation	vas_med_l/activation	vas_int_l/activation	vas_lat_l/activation	med_gas_l/activation	lat_gas_l/activation	soleus_l/activation	tib_post_l/activation	flex_dig_l/activation	flex_hal_l/activation	tib_ant_l/activation	per_brev_l/activation	per_long_l/activation	per_tert_l/activation	ext_dig_l/activation	ext_hal_l/activation	FDB_l/activation	ercspn_l/activation	intobl_l/activation	extobl_l/activation	glut_med1_r/activation	glut_med2_r/activation	glut_med3_r/activation	glut_min1_r/activation	glut_min2_r/activation	glut_min3_r/activation	semimem_r/activation	semiten_r/activation	bifemlh_r/activation	bifemsh_r/activation	sar_r/activation	add_long_r/activation	add_brev_r/activation	add_mag1_r/activation	add_mag2_r/activation	add_mag3_r/activation	tfl_r/activation	pect_r/activation	grac_r/activation	glut_max1_r/activation	glut_max2_r/activation	glut_max3_r/activation	iliacus_r/activation	psoas_r/activation	quad_fem_r/activation	gem_r/activation	peri_r/activation	rect_fem_r/activation	vas_med_r/activation	vas_int_r/activation	vas_lat_r/activation	med_gas_r/activation	lat_gas_r/activation	soleus_r/activation	tib_post_r/activation	flex_dig_r/activation	flex_hal_r/activation	tib_ant_r/activation	per_brev_r/activation	per_long_r/activation	per_tert_r/activation	ext_dig_r/activation	ext_hal_r/activation	FDB_r/activation	ercspn_r/activation	intobl_r/activation	extobl_r/activation	
          1.56718111	         -2.92175053	          1.80672823	         -4.50793226	          2.08435087	          0.90593291	          0.00659258	         29.82489986	          1.87267420	         -6.58965830	        -11.80775612	          1.45242100	         -2.39970824	        -16.88540390	        -18.54114198	          6.51495087	         -5.24089540	         -5.33025689	        -16.18762232	          6.32148161	          7.57639217	          0.65193489	         25.63648505	         -3.92885811	         -0.62399556	          1.06152603	         -2.76356291	        -13.49455315	          9.73484092	          4.30867243	        -13.67236408	         19.06583536	         21.93635361	         33.69469343	         86.51662706	         86.51662706	          0.05000027	          0.05000064	          0.05000027	          0.05016297	          0.05000314	          0.05000093	          0.32467408	          0.16739244	          0.39713364	          0.12009655	          0.08863608	          0.12827525	          0.10594761	          0.08415705	          0.05848647	          0.18471095	          0.05000022	          0.05004344	          0.14635376	          0.05000054	          0.05000031	          0.21502337	          0.14962967	          0.14421740	          0.19849486	          0.06066134	          0.05000190	          0.05000011	          0.05000092	          0.05000073	          0.05000046	          0.07601768	          0.05538066	          0.05000010	          0.13351287	          0.05000080	          0.07443495	          0.46530671	          0.13679294	          0.15588439	          0.50689893	          0.58293913	          0.14226366	          0.06281177	          0.07214245	          0.12651581	          0.08553117	          0.14208771	          0.05000011	          0.05000005	          0.30512481	          0.11099257	          0.05870716	          0.05000067	          0.05000008	          0.05000007	          0.05000010	          0.05645468	          0.10435167	          0.05000019	          0.05000029	          0.05000079	          0.05000035	          0.37100096	          0.05000390	          0.05000022	          0.05000115	          0.05000067	          0.05000047	          0.34194825	          0.61630008	          0.05000005	          0.05000016	          0.05000014	          0.65010512	          0.20082886	          0.20095501	          0.16556408	          0.37200841	          0.60789890	          0.13078137	          0.56688229	          0.91623746	          0.97104945	          0.05000000	          0.62030734	          0.47153425	          0.05000003	          0.05000001	          0.05000008	          0.95232917	          0.05000005	          0.05000002	          0.05000003	
          1.57762898	         -2.92719362	          1.86579504	         -4.82379627	          2.10042839	          0.90401353	          0.00615385	         30.00683679	          2.08313269	         -6.65524072	        -12.91837441	          1.11354583	         -2.76640800	        -17.30183920	        -18.10289490	          6.38104973	         -6.42458302	         -5.61389378	        -16.02727720	          6.39445226	          7.30776572	          0.52202785	         27.29196103	         -3.81103642	         -0.75079832	          1.19148794	         -3.45334121	        -13.46864330	          9.13836136	          4.20736784	        -13.63610067	         19.22840985	         21.39540759	         34.58137850	         86.51662706	         86.51662706	          0.05000007	          0.05000008	          0.05000235	          0.05000007	          0.05000010	          0.05000035	          0.30379116	          0.16908328	          0.38626335	          0.12133797	          0.11157179	          0.14319115	          0.16449512	          0.07168991	          0.05000207	          0.22286400	          0.05687850	          0.08577967	          0.25089495	          0.05000062	          0.05000064	          0.26022857	          0.13099712	          0.13099937	          0.21915420	          0.05166604	          0.05000013	          0.05000002	          0.05000003	          0.05000002	          0.05000002	          0.06514136	          0.05870677	          0.05169718	          0.13715695	          0.05000034	          0.07041670	          0.47545388	          0.14643871	          0.17060037	          0.51429106	          0.60020333	          0.19749754	          0.16303081	          0.06407159	          0.15399296	          0.07284639	          0.12101525	          0.05000014	          0.05000007	          0.25987293	          0.09453173	          0.05000066	          0.05000052	          0.05000007	          0.05000007	          0.05000004	          0.05000041	          0.23945040	          0.07104938	          0.05000138	          0.05000403	          0.05004257	          0.31597954	          0.05000222	          0.05000019	          0.05000198	          0.05000139	          0.05000155	          0.29123516	          0.66557373	          0.05000009	          0.05000018	          0.05000012	          0.55369041	          0.19610029	          0.19379725	          0.16268312	          0.35042744	          0.57096808	          0.13617946	          0.48281001	          0.95062653	          0.98293537	          0.12018119	          0.60433488	          0.45399112	          0.05000010	          0.05000001	          0.05000004	          0.82216833	          0.05000001	          0.05000002	          0.05000000	
          1.58807685	         -2.92968735	          1.91674755	         -5.11407642	          2.11677961	          0.90199991	          0.00566105	         30.23844015	          2.29932809	         -6.69870641	        -13.93181705	          0.77059101	         -3.11456241	        -18.52099707	        -17.87459627	          6.05934920	         -7.62943564	         -5.96689912	        -15.82470022	          6.45150566	          7.03652981	          0.37636035	         28.81280826	         -3.68135160	         -0.87734371	          1.32353071	         -4.17104567	        -13.45169982	          8.69767452	          4.03353764	        -13.60337172	         19.32711842	         20.89445566	         35.47053992	         86.51662706	         86.51662706	          0.05870652	          0.05599003	          0.05000002	          0.05870657	          0.05870655	          0.05000126	          0.25873698	          0.14400716	          0.32897802	          0.10334278	          0.09502510	          0.21655007	          0.35899557	          0.06105806	          0.05000680	          0.24687164	          0.05000012	          0.09121232	          0.21368606	          0.05000009	          0.05000004	          0.32620189	          0.11156949	          0.11157144	          0.47450566	          0.23117644	          0.09770898	          0.05000000	          0.05000000	          0.05000000	          0.05000000	          0.05548048	          0.05000020	          0.05000000	          0.20711651	          0.05000177	          0.08093182	          0.42694063	          0.12472093	          0.14529925	          0.43801855	          0.59686447	          0.18732906	          0.25226234	          0.05456936	          0.13115491	          0.06204281	          0.10306794	          0.05000004	          0.05000002	          0.22133216	          0.08051213	          0.05000014	          0.05000129	          0.05000011	          0.05000009	          0.05000015	          0.05000050	          0.26084543	          0.34996062	          0.05000055	          0.05000208	          0.05732381	          0.26911792	          0.08072380	          0.05000021	          0.05000058	          0.05000039	          0.05000041	          0.24804313	          0.64883727	          0.05000002	          0.05000012	          0.05000017	          0.47157460	          0.17550166	          0.17502686	          0.14643037	          0.32565127	          0.53066854	          0.13094911	          0.41120618	          0.97089652	          0.98994140	          0.30004631	          0.51470884	          0.41362906	          0.37998444	          0.05000001	          0.05000003	          0.70023549	          0.05000003	          0.05000000	          0.05870661	
          1.59852473	         -2.93014120	          1.96666575	         -5.36508304	          2.13333329	          0.89985454	          0.00512662	         30.45849860	          2.48520543	         -6.73971318	        -14.80708695	          0.42531969	         -3.41898229	        -20.40922285	        -17.95248718	          5.44603352	         -8.72784118	         -6.34927776	        -15.54925930	          6.45851967	          6.79816504	          0.20483535	         29.87269112	         -3.54650841	         -1.01189849	          1.44894161	         -4.89361914	        -13.45253858	          8.42391661	          3.78110760	        -13.58513538	         19.37743276	         20.41452613	         36.41210357	         86.51662706	         86.51662706	          0.05000000	          0.05000001	          0.08831713	          0.05000003	          0.05000002	          0.05000003	          0.22036462	          0.12264998	          0.28018846	          0.08801639	          0.08093238	          0.18443439	          0.32849089	          0.43372847	          0.29509286	          0.32249234	          0.05000022	          0.07768649	          0.18199508	          0.05000017	          0.14172274	          0.43121048	          0.09502303	          0.09502468	          0.69025244	          0.19689154	          0.08321831	          0.06892922	          0.05000097	          0.05000322	          0.12683513	          0.06892920	          0.06892920	          0.06892920	          0.17639983	          0.05870636	          0.06892918	          0.53817048	          0.10622407	          0.17371651	          0.66874499	          0.65855536	          0.30772075	          0.21485022	          0.05000016	          0.11170380	          0.05284148	          0.08778232	          0.05870662	          0.05870663	          0.18850721	          0.06857174	          0.05870667	          0.05000297	          0.05870688	          0.05870692	          0.05000069	          0.05000740	          0.41391695	          0.50477948	          0.36341729	          0.15270562	          0.15550287	          0.22920615	          0.06875282	          0.05870846	          0.05870842	          0.05870910	          0.06892773	          0.21125675	          0.66408963	          0.06892911	          0.05870676	          0.05870661	          0.40163706	          0.16500200	          0.16755115	          0.14156546	          0.29964169	          0.48990067	          0.12674203	          0.35022165	          0.95909282	          0.99407102	          0.46951119	          0.43837431	          0.39188376	          0.63453789	          0.05000000	          0.05000003	          0.59638606	          0.07692623	          0.05870654	          0.05000006	
